<?xml version="1.0" encoding="iso-8859-1"?>
<!-- Generator: Adobe Illustrator 19.0.0, SVG Export Plug-In . SVG Version: 6.00 Build 0)  -->
<svg version="1.1" id="Capa_1" xmlns="http://www.w3.org/2000/svg" xmlns:xlink="http://www.w3.org/1999/xlink" x="0px" y="0px"
	 viewBox="0 0 512 512" style="enable-background:new 0 0 512 512;" xml:space="preserve">
<g>
	<g>
		<path d="M510.089,386.605c-8.387-44.24-47.44-81.939-97.794-84.463c-16.411-0.81-35.121-9.83-48.832-23.541l-33.891-33.881
			l93.013-91.893l10.68,10.67c7.368,7.393,19.905,5.166,24.261-4.4l53.032-116.674c2.59-5.69,1.37-12.391-3.05-16.811L486.298,4.391
			c-4.42-4.42-11.12-5.63-16.811-3.05L352.803,54.383c-9.461,4.288-11.836,16.804-4.4,24.261l10.54,10.54l-93.013,91.893
			l-33.621-33.611c-13.911-13.911-21.851-30.211-22.361-45.882c-0.86-26.751-11.77-51.902-30.691-70.833
			C148.066-0.439,100.154-8.579,60.032,10.501c-4.4,2.09-7.51,6.19-8.34,11c-0.83,4.8,0.73,9.7,4.17,13.15l34.141,34.141v21.211
			H68.793L34.652,55.863c-3.44-3.44-8.35-5-13.151-4.17c-4.81,0.83-8.91,3.94-11,8.34c-22.521,47.352-7.19,103.094,36.431,132.535
			c15.761,10.64,34.421,16.661,53.952,17.401c13.911,0.54,27.811,6.23,39.841,16.161c-4.452,11.407-4.119,24.498,1.35,35.871
			L13.141,392.816c-17.501,17.551-17.491,46.062,0.04,63.592l42.432,42.432c17.518,17.518,46.045,17.577,63.642,0
			c0.02-0.03,0.05-0.05,0.07-0.08l128.865-130.735c11.216,5.345,24.269,5.744,35.701,1.26c10.71,12.91,17.551,28.821,18.251,43.012
			c2.541,50.395,40.247,89.411,84.463,97.794c35.118,6.605,70.308-4.465,94.664-28.821
			C505.879,456.648,516.649,421.267,510.089,386.605z M472.438,32.962l6.51,6.51l-39.781,87.503l-54.242-54.242L472.438,32.962z
			 M102.034,179.988c-13.941-0.53-27.191-4.78-38.321-12.29c-24.711-16.681-36.751-45.132-32.711-73.053l20.971,20.971
			c2.81,2.81,6.63,4.39,10.6,4.39h42.432c8.28,0,15.001-6.72,15.001-15.001V62.573c0-3.97-1.58-7.79-4.39-10.6L94.674,31.032
			c22.921-3.27,46.562,4.13,63.362,20.941c13.521,13.521,21.311,31.481,21.931,50.582c0.76,23.321,11.81,46.802,31.131,66.122
			l33.481,33.481l-19.431,19.201l-10.67-10.67c-14.912-14.912-37.248-16.944-54.132-7.27
			C143.136,189.028,122.755,180.788,102.034,179.988z M98.004,477.659c-5.85,5.82-15.341,5.8-21.181-0.03l-42.432-42.432
			c-5.85-5.85-5.85-15.361,0-21.211l0.08-0.08l127.045-128.895l63.642,63.642L98.004,477.659z M278.121,337.974
			c-5.847,5.847-15.343,5.868-21.211,0l-84.863-84.863c-5.883-5.883-5.834-15.378,0-21.211c5.85-5.851,15.364-5.857,21.221,0
			l84.853,84.853C283.971,322.603,283.971,332.123,278.121,337.974z M267.58,263.781l-21.211-21.211l133.795-132.175l21.211,21.221
			C393.969,138.932,274.803,256.647,267.58,263.781z M460.047,460.048c-17.851,17.861-42.582,25.351-67.853,20.561
			c-31.27-5.93-58.239-33.486-60.092-69.783c-1.02-20.921-10.4-43.172-25.491-61.162c3.84-6.72,5.9-14.351,5.9-22.301
			c0-12.02-4.68-23.321-13.18-31.821l-10.54-10.54l19.441-19.201l34.011,34.021c19.051,19.041,44.682,31.111,68.583,32.281
			c36.211,1.852,63.848,28.751,69.783,60.092C485.398,417.467,477.908,442.197,460.047,460.048z"/>
	</g>
</g>
<g>
	<g>
		<path d="M407.015,362.014c-24.811,0-45.002,20.191-45.002,45.002c0,24.811,20.191,45.002,45.002,45.002
			s45.002-20.191,45.002-45.002C452.017,382.205,431.826,362.014,407.015,362.014z M407.015,422.017
			c-8.27,0-15.001-6.73-15.001-15.001c0-8.27,6.73-15.001,15.001-15.001s15.001,6.73,15.001,15.001
			C422.016,415.286,415.286,422.017,407.015,422.017z"/>
	</g>
</g>
<g>
</g>
<g>
</g>
<g>
</g>
<g>
</g>
<g>
</g>
<g>
</g>
<g>
</g>
<g>
</g>
<g>
</g>
<g>
</g>
<g>
</g>
<g>
</g>
<g>
</g>
<g>
</g>
<g>
</g>
</svg>
