<?xml version="1.0" encoding="iso-8859-1"?>
<!-- Generator: Adobe Illustrator 19.0.0, SVG Export Plug-In . SVG Version: 6.00 Build 0)  -->
<svg version="1.1" id="Capa_1" xmlns="http://www.w3.org/2000/svg" xmlns:xlink="http://www.w3.org/1999/xlink" x="0px" y="0px"
	 viewBox="0 0 512 512" style="enable-background:new 0 0 512 512;" xml:space="preserve">
<g>
	<g>
		<path d="M511.268,197.484c-1.77-5.43-6.46-9.39-12.11-10.21l-158.039-22.96L270.449,21.115c-2.53-5.12-7.74-8.37-13.45-8.37
			c-5.71,0-10.92,3.25-13.45,8.37L172.88,164.294l-160.009,22.98c-5.68,0.81-10.4,4.79-12.15,10.26c-1.76,5.46-0.24,11.44,3.9,15.41
			l116.249,111.459l-26.98,157.319c-0.97,5.62,1.35,11.31,5.96,14.67c4.63,3.35,10.75,3.8,15.8,1.14L257,423.222l141.349,74.309
			c5.033,2.643,11.171,2.222,15.79-1.14c4.62-3.36,6.94-9.05,5.97-14.67l-26.99-157.399l114.349-111.459
			C511.558,208.874,513.028,202.914,511.268,197.484z M366.529,308.343c-3.54,3.45-5.15,8.42-4.31,13.28l23.19,135.209
			l-121.429-63.839c-2.18-1.15-4.58-1.72-6.98-1.72c-2.4,0-4.8,0.57-6.98,1.72l-121.429,63.839l23.19-135.209
			c0.85-4.91-0.8-9.91-4.4-13.36l-99.779-95.669l137.369-19.73c4.89-0.7,9.13-3.77,11.32-8.2L257,61.645l60.71,123.019
			c2.19,4.42,6.41,7.49,11.3,8.2l135.759,19.73L366.529,308.343z"/>
	</g>
</g>
<g>
</g>
<g>
</g>
<g>
</g>
<g>
</g>
<g>
</g>
<g>
</g>
<g>
</g>
<g>
</g>
<g>
</g>
<g>
</g>
<g>
</g>
<g>
</g>
<g>
</g>
<g>
</g>
<g>
</g>
</svg>
