<?xml version="1.0" encoding="iso-8859-1"?>
<!-- Generator: Adobe Illustrator 19.0.0, SVG Export Plug-In . SVG Version: 6.00 Build 0)  -->
<svg version="1.1" id="Capa_1" xmlns="http://www.w3.org/2000/svg" xmlns:xlink="http://www.w3.org/1999/xlink" x="0px" y="0px"
	 viewBox="0 0 512 512" style="enable-background:new 0 0 512 512;" xml:space="preserve">
<g>
	<g>
		<path d="M377,151h-60c-24.81,0-45,20.19-45,45c0,5.26,0.92,10.31,2.58,15h-36.15c1.66-4.69,2.57-9.74,2.57-15
			c0-24.81-20.19-45-45-45h-60C61.01,151,0,211.56,0,286v60c0,74.44,61.01,135,136,135h241c74.44,0,135-60.56,135-135v-60
			C512,211.56,451.44,151,377,151z M286,391h-90c-8.28,0-15,6.72-15,15c0,8.28,6.72,15,15,15h60c8.27,0,15,6.73,15,15
			c0,8.27-6.73,15-15,15H136c-58.45,0-106-47.1-106-105v-60c0-57.9,47.55-105,106-105h60c8.27,0,15,6.73,15,15s-6.73,15-15,15h-60
			c-8.28,0-15,6.72-15,15c0,8.28,6.72,15,15,15h150c8.27,0,15,6.73,15,15s-6.73,15-15,15h-90c-8.28,0-15,6.72-15,15
			c0,8.28,6.72,15,15,15h90c8.27,0,15,6.73,15,15c0,8.27-6.73,15-15,15h-90c-8.28,0-15,6.72-15,15c0,8.28,6.72,15,15,15h90
			c8.27,0,15,6.73,15,15C301,384.27,294.27,391,286,391z M482,346c0,57.9-47.1,105-105,105h-78.58c1.66-4.69,2.58-9.74,2.58-15
			c0-5.86-1.14-11.45-3.18-16.59c19.1-5.2,33.18-22.69,33.18-43.41c0-11.52-4.35-22.03-11.49-30c7.14-7.97,11.49-18.48,11.49-30
			c0-11.52-4.35-22.03-11.49-30c7.14-7.97,11.49-18.48,11.49-30c0-5.26-0.92-10.31-2.58-15H362v15c0,28.05,10.92,54.42,30.75,74.25
			c5.85,5.85,15.362,5.857,21.22,0c5.86-5.86,5.86-15.36,0-21.22C399.8,294.87,392,276.03,392,256v-30c0-8.28-6.72-15-15-15h-60
			c-8.27,0-15-6.73-15-15s6.73-15,15-15h60c57.9,0,105,47.1,105,105V346z"/>
	</g>
</g>
<g>
	<g>
		<path d="M256,31c-8.284,0-15,6.716-15,15v45c0,8.284,6.716,15,15,15s15-6.716,15-15V46C271,37.716,264.284,31,256,31z"/>
	</g>
</g>
<g>
	<g>
		<path d="M387.606,65.393c-5.857-5.858-15.355-5.858-21.213,0l-30,30c-5.858,5.858-5.858,15.355,0,21.213
			c5.857,5.858,15.356,5.859,21.213,0l30-30C393.464,80.748,393.464,71.251,387.606,65.393z"/>
	</g>
</g>
<g>
	<g>
		<path d="M176.606,95.393l-30-30c-5.857-5.858-15.355-5.858-21.213,0c-5.858,5.858-5.858,15.355,0,21.213l30,30
			c5.857,5.858,15.356,5.859,21.213,0C182.464,110.748,182.464,101.251,176.606,95.393z"/>
	</g>
</g>
<g>
</g>
<g>
</g>
<g>
</g>
<g>
</g>
<g>
</g>
<g>
</g>
<g>
</g>
<g>
</g>
<g>
</g>
<g>
</g>
<g>
</g>
<g>
</g>
<g>
</g>
<g>
</g>
<g>
</g>
</svg>
