<?xml version="1.0" encoding="iso-8859-1"?>
<!-- Generator: Adobe Illustrator 19.0.0, SVG Export Plug-In . SVG Version: 6.00 Build 0)  -->
<svg version="1.1" id="Capa_1" xmlns="http://www.w3.org/2000/svg" xmlns:xlink="http://www.w3.org/1999/xlink" x="0px" y="0px"
	 viewBox="0 0 512 512" style="enable-background:new 0 0 512 512;" xml:space="preserve">
<g>
	<g>
		<path d="M257,0C115.61,0,7.66,124.4,1.31,271.13C0.46,275.63,0,280.26,0,285c0,36.99,26.93,67.79,62.2,73.89
			C68.07,376.92,85.03,390,105,390c24.81,0,45-20.19,45-45V225c0-22.16-16.11-40.62-37.24-44.32C141.67,125.98,196.55,90,257,90
			c59.38,0,114.08,35.44,143.17,90.52C378.58,183.82,362,202.51,362,225v120c0,24.81,20.19,45,45,45c19.97,0,36.93-13.08,42.8-31.11
			c11.93-2.07,22.9-6.93,32.2-13.93V375c0,59-47.1,107-105,107h-47.58c1.66-4.69,2.58-9.74,2.58-15c0-24.81-20.19-45-45-45h-61
			c-24.81,0-45,20.19-45,45s20.19,45,45,45h151c36,0,69.95-14.44,95.58-40.66C498,445.33,512,411.12,512,375v-90
			C512,124.75,395.39,0,257,0z M60,327.43c-13.599-4.822-20.21-14.042-23-18.516c-5.748-9.218-7-15.168-7-25.914
			c0-18.906,12.704-34.281,30-40.43V327.43z M62.2,211.11c-8.44,1.46-16.39,4.33-23.62,8.36c9.82-41.63,28.76-79.11,54.25-109.53
			c2.08,4.11,4.81,7.91,8.12,11.22c3.24,3.24,6.87,5.86,10.75,7.87c-15.32,18.03-27.82,39.04-36.56,62.35
			C69.22,196.64,64.7,203.42,62.2,211.11z M120,225v120c0,8.27-6.73,15-15,15s-15-6.73-15-15V225c0-8.65,7.13-15,15-15
			C113.27,210,120,216.72,120,225z M390.84,99.95c-4.68,4.68-12.41,5.53-18.34,0.82C338.76,74.04,298.81,60,257,60
			c-41.14,0-82.79,13.99-116.67,40.91c-5.47,4.34-13.28,3.93-18.17-0.96c-2.78-2.78-4.12-6.39-4.12-9.95c0-2.99,0.94-5.94,2.75-8.34
			C158.77,49.19,206,30,257,30c46.55,0,93.75,16.29,134.17,50.42C396.23,85.7,396.32,94.47,390.84,99.95z M287,482h-61
			c-8.27,0-15-6.73-15-15c0-8.27,6.73-15,15-15h61c8.27,0,15,6.73,15,15C302,475.27,295.27,482,287,482z M422,345
			c0,8.27-6.73,15-15,15c-8.27,0-15-6.73-15-15V225c0-8.27,6.73-15,15-15c8.27,0,15,6.73,15,15V345z M438.41,192.82
			c-8.69-23.69-21.18-45.25-36.9-63.89c3.8-2,7.36-4.59,10.54-7.77c3.37-3.37,6.13-7.24,8.22-11.43
			c25.61,30.62,44.6,68.43,54.35,110.43c-7.54-4.39-15.91-7.51-24.82-9.05C447.52,204.11,443.57,197.85,438.41,192.82z M452,327.43
			v-84.86c17.46,6.19,30,22.87,30,42.43S469.46,321.24,452,327.43z"/>
	</g>
</g>
<g>
</g>
<g>
</g>
<g>
</g>
<g>
</g>
<g>
</g>
<g>
</g>
<g>
</g>
<g>
</g>
<g>
</g>
<g>
</g>
<g>
</g>
<g>
</g>
<g>
</g>
<g>
</g>
<g>
</g>
</svg>
