<svg id="Ebene_1" data-name="Ebene 1" xmlns="http://www.w3.org/2000/svg" viewBox="0 0 116.1 51.74"><defs><style>.cls-1{fill:none;stroke:#000;stroke-miterlimit:10;stroke-width:6px;}</style></defs><title>Unbenannt-1</title><path class="cls-1" d="M515,987.85" transform="translate(-481.63 -932.19)"/><polygon points="37.69 38.17 59.73 0 48.55 0 32.1 28.48 37.69 38.17"/><polygon points="0 0 29.8 51.62 29.98 51.52 35.45 42.04 11.18 0 0 0"/><polygon points="75.11 0 104.91 51.62 105.09 51.52 116.09 51.62 86.29 0 75.11 0"/><polygon points="22.35 0 40.08 30.9 40.26 30.8 45.73 21.32 33.54 0 22.35 0"/><polygon points="62.02 3.78 56.42 13.46 67.44 32.49 67.62 32.39 73.09 22.91 62.02 3.78"/><polygon points="75.09 0.11 86.22 0.11 67.62 32.6 67.44 32.5 61.97 23.02 75.09 0.11"/><path d="M522.42,983.81l-1.78-5.51h1.24l1.23,3.87h0l1.24-3.87h1.25l-1.83,5.51Z" transform="translate(-481.63 -932.19)"/><path d="M525.46,979.93A2.71,2.71,0,0,1,526,979a2.35,2.35,0,0,1,.86-.62,2.73,2.73,0,0,1,1.14-.23,2.8,2.8,0,0,1,1.14.23,2.4,2.4,0,0,1,.85.62,2.71,2.71,0,0,1,.53.92,3.3,3.3,0,0,1,.19,1.15,3.18,3.18,0,0,1-.19,1.12,2.66,2.66,0,0,1-.53.91,2.5,2.5,0,0,1-.85.61,3,3,0,0,1-1.14.22,2.9,2.9,0,0,1-1.14-.22,2.44,2.44,0,0,1-.86-.61,2.66,2.66,0,0,1-.53-.91,3.42,3.42,0,0,1-.19-1.12A3.55,3.55,0,0,1,525.46,979.93Zm1.11,1.82a1.66,1.66,0,0,0,.26.59,1.27,1.27,0,0,0,.46.43,1.69,1.69,0,0,0,1.39,0,1.27,1.27,0,0,0,.46-.43,1.66,1.66,0,0,0,.26-.59,2.51,2.51,0,0,0,.08-.67,2.81,2.81,0,0,0-.08-.71,1.79,1.79,0,0,0-.26-.6,1.27,1.27,0,0,0-.46-.43,1.59,1.59,0,0,0-1.39,0,1.27,1.27,0,0,0-.46.43,1.79,1.79,0,0,0-.26.6,2.81,2.81,0,0,0-.08.71A2.51,2.51,0,0,0,526.57,981.75Z" transform="translate(-481.63 -932.19)"/><path d="M532.16,978.3v5.51h-1.22V978.3Z" transform="translate(-481.63 -932.19)"/><path d="M535,978.3a2.73,2.73,0,0,1,1,.17,2.07,2.07,0,0,1,.79.51,2.28,2.28,0,0,1,.53.85,3.91,3.91,0,0,1,0,2.31,2.54,2.54,0,0,1-.46.88,2.28,2.28,0,0,1-.78.58,2.71,2.71,0,0,1-1.11.21h-2.38V978.3Zm-.08,4.49a1.81,1.81,0,0,0,.51-.08,1.22,1.22,0,0,0,.44-.28,1.56,1.56,0,0,0,.31-.52,2.2,2.2,0,0,0,.11-.77,2.88,2.88,0,0,0-.08-.75,1.47,1.47,0,0,0-.26-.58,1.3,1.3,0,0,0-.49-.37,2.13,2.13,0,0,0-.76-.12h-.86v3.47Z" transform="translate(-481.63 -932.19)"/><path d="M538.76,978.3h1.36l1.29,2.17,1.29-2.17h1.35l-2,3.4v2.11h-1.21v-2.15Z" transform="translate(-481.63 -932.19)"/><path d="M543.88,979.93a2.71,2.71,0,0,1,.53-.92,2.35,2.35,0,0,1,.86-.62,2.71,2.71,0,0,1,1.13-.23,2.81,2.81,0,0,1,1.15.23,2.4,2.4,0,0,1,.85.62,2.71,2.71,0,0,1,.53.92,3.55,3.55,0,0,1,.19,1.15,3.42,3.42,0,0,1-.19,1.12,2.66,2.66,0,0,1-.53.91,2.5,2.5,0,0,1-.85.61,3,3,0,0,1-1.15.22,2.88,2.88,0,0,1-1.13-.22,2.44,2.44,0,0,1-.86-.61,2.66,2.66,0,0,1-.53-.91,3.18,3.18,0,0,1-.19-1.12A3.3,3.3,0,0,1,543.88,979.93Zm1.11,1.82a1.66,1.66,0,0,0,.26.59,1.27,1.27,0,0,0,.46.43,1.69,1.69,0,0,0,1.39,0,1.27,1.27,0,0,0,.46-.43,1.66,1.66,0,0,0,.26-.59,2.51,2.51,0,0,0,.08-.67,2.81,2.81,0,0,0-.08-.71,1.79,1.79,0,0,0-.26-.6,1.27,1.27,0,0,0-.46-.43,1.59,1.59,0,0,0-1.39,0,1.27,1.27,0,0,0-.46.43,1.79,1.79,0,0,0-.26.6,2.81,2.81,0,0,0-.08.71A2.51,2.51,0,0,0,545,981.75Z" transform="translate(-481.63 -932.19)"/><path d="M553.42,983.39a2.56,2.56,0,0,1-1.73.55,2.51,2.51,0,0,1-1.73-.54,2.13,2.13,0,0,1-.62-1.67V978.3h1.21v3.43a3.27,3.27,0,0,0,0,.44,1,1,0,0,0,.16.38,1,1,0,0,0,.35.27,1.39,1.39,0,0,0,.59.1,1.13,1.13,0,0,0,.9-.29,1.38,1.38,0,0,0,.24-.9V978.3h1.22v3.43A2.08,2.08,0,0,1,553.42,983.39Z" transform="translate(-481.63 -932.19)"/><path d="M557.48,978.3a1.78,1.78,0,0,1,.67.12,1.48,1.48,0,0,1,.51.32,1.51,1.51,0,0,1,.33.49,1.72,1.72,0,0,1-.1,1.43,1.21,1.21,0,0,1-.66.54v0a.87.87,0,0,1,.37.19,1.22,1.22,0,0,1,.24.3,1.42,1.42,0,0,1,.13.38,3,3,0,0,1,.06.42c0,.08,0,.19,0,.31s0,.24,0,.36,0,.24.06.35a.73.73,0,0,0,.13.28h-1.21a2.12,2.12,0,0,1-.13-.62c0-.25,0-.48-.06-.7a1.09,1.09,0,0,0-.27-.63.86.86,0,0,0-.65-.2h-1.22v2.15h-1.21V978.3Zm-.43,2.49a1,1,0,0,0,.63-.18.79.79,0,0,0,.21-.61.73.73,0,0,0-.21-.58,1,1,0,0,0-.63-.18h-1.33v1.55Z" transform="translate(-481.63 -932.19)"/><path d="M562.78,978.3l1.29,3.79h0l1.22-3.79H567v5.51h-1.14V979.9h0l-1.35,3.91h-.94l-1.35-3.87h0v3.87h-1.13V978.3Z" transform="translate(-481.63 -932.19)"/><path d="M568.72,978.3v5.51h-1.21V978.3Z" transform="translate(-481.63 -932.19)"/><path d="M570.41,978.3l2.3,3.7h0v-3.7h1.13v5.51h-1.21l-2.29-3.69h0v3.69h-1.13V978.3Z" transform="translate(-481.63 -932.19)"/><path d="M576.73,978.3a2.64,2.64,0,0,1,1,.17,2,2,0,0,1,.8.51,2.26,2.26,0,0,1,.52.85,3.34,3.34,0,0,1,.19,1.19,3.94,3.94,0,0,1-.15,1.12,2.4,2.4,0,0,1-.47.88,2.28,2.28,0,0,1-.78.58,2.67,2.67,0,0,1-1.1.21h-2.38V978.3Zm-.08,4.49a1.81,1.81,0,0,0,.51-.08,1.22,1.22,0,0,0,.44-.28,1.55,1.55,0,0,0,.3-.52,2.18,2.18,0,0,0,.12-.77,3.38,3.38,0,0,0-.08-.75,1.35,1.35,0,0,0-.27-.58,1.16,1.16,0,0,0-.49-.37,2,2,0,0,0-.75-.12h-.87v3.47Z" transform="translate(-481.63 -932.19)"/></svg>