<?xml version="1.0" encoding="iso-8859-1"?>
<!-- Generator: Adobe Illustrator 19.0.0, SVG Export Plug-In . SVG Version: 6.00 Build 0)  -->
<svg version="1.1" id="Capa_1" xmlns="http://www.w3.org/2000/svg" xmlns:xlink="http://www.w3.org/1999/xlink" x="0px" y="0px"
	 viewBox="0 0 512 512" style="enable-background:new 0 0 512 512;" xml:space="preserve">
<g>
	<g>
		<path d="M501.74,211.77l-60.7-20.24c-2.39-6.8-5.18-13.51-8.33-20.05l28.62-57.27c2.89-5.77,1.76-12.74-2.8-17.31L416.1,54.48
			c-4.57-4.57-11.54-5.7-17.31-2.81L341.52,80.3c-6.53-3.16-13.22-5.94-20.01-8.32l-20.26-61.66C299.23,4.16,293.48,0,287,0h-60
			c-6.48,0-12.23,4.16-14.25,10.32l-20.26,61.66c-6.79,2.38-13.48,5.16-20.01,8.32l-57.27-28.63c-5.77-2.89-12.75-1.76-17.31,2.81
			L55.48,96.9c-4.57,4.57-5.7,11.54-2.81,17.31l28.63,57.27c-3.15,6.52-5.93,13.2-8.31,19.98l-62.61,20.27
			C4.19,213.73,0,219.5,0,226v60c0,6.5,4.19,12.27,10.38,14.27l62.61,20.27c2.38,6.78,5.16,13.46,8.31,19.98l-28.63,57.26
			c-2.89,5.78-1.76,12.75,2.8,17.32l42.43,42.42c4.56,4.57,11.54,5.7,17.32,2.81l57.26-28.63c6.53,3.15,13.23,5.94,20.01,8.32
			l20.26,61.66c2.02,6.16,7.77,10.32,14.25,10.32h60c6.48,0,12.23-4.16,14.25-10.32l20.26-61.66c6.78-2.38,13.48-5.17,20.01-8.32
			l57.26,28.63c5.78,2.89,12.75,1.76,17.32-2.81l42.43-42.42c4.56-4.57,5.69-11.54,2.8-17.32l-28.62-57.26
			c3.15-6.54,5.94-13.25,8.33-20.05l60.7-20.24c6.13-2.04,10.26-7.77,10.26-14.23v-60C512,219.54,507.87,213.81,501.74,211.77z
			 M482,275.19L482,275.19l-57.6,19.2c-4.61,1.54-8.19,5.21-9.61,9.85c-3.05,10-7.13,19.82-12.12,29.18
			c-2.28,4.29-2.35,9.42-0.17,13.76l27.17,54.35l-27.14,27.14l-54.34-27.18c-4.35-2.17-9.47-2.1-13.76,0.18
			c-9.38,4.99-19.2,9.07-29.19,12.12c-4.66,1.43-8.35,5.03-9.87,9.67L276.14,482h-38.28l-19.23-58.54
			c-1.52-4.64-5.21-8.24-9.87-9.67c-9.99-3.05-19.81-7.13-29.19-12.12c-4.28-2.28-9.41-2.35-13.76-0.18l-54.34,27.18l-27.14-27.14
			l27.17-54.35c2.18-4.34,2.11-9.47-0.17-13.76c-4.99-9.36-9.07-19.18-12.12-29.18c-1.43-4.69-5.06-8.38-9.73-9.89L30,275.09v-38.18
			l59.48-19.26c4.67-1.51,8.3-5.2,9.73-9.89c3.05-9.99,7.13-19.81,12.12-29.19c2.28-4.28,2.35-9.41,0.17-13.76l-27.17-54.34
			l27.14-27.14l54.34,27.17c4.35,2.18,9.48,2.11,13.76-0.17c9.38-4.99,19.2-9.07,29.19-12.12c4.66-1.43,8.35-5.03,9.87-9.67
			L237.86,30h38.28l19.23,58.54c1.52,4.64,5.21,8.24,9.87,9.67c9.99,3.05,19.81,7.13,29.19,12.12c4.28,2.28,9.41,2.35,13.76,0.17
			l54.34-27.17l27.14,27.14l-27.17,54.34c-2.18,4.35-2.11,9.48,0.17,13.76c4.99,9.37,9.07,19.19,12.12,29.19
			c1.42,4.64,5,8.31,9.61,9.85l57.6,19.2V275.19z"/>
	</g>
</g>
<g>
	<g>
		<path d="M256,121c-74.44,0-135,60.56-135,135s60.56,135,135,135s135-60.56,135-135S330.44,121,256,121z M256,361
			c-57.9,0-105-47.1-105-105c0-57.9,47.1-105,105-105c57.9,0,105,47.1,105,105C361,313.9,313.9,361,256,361z"/>
	</g>
</g>
<g>
	<g>
		<path d="M256,181c-41.35,0-75,33.65-75,75c0,41.35,33.65,75,75,75c41.36,0,75-33.65,75-75C331,214.65,297.36,181,256,181z
			 M256,301c-24.81,0-45-20.19-45-45s20.19-45,45-45s45,20.19,45,45S280.81,301,256,301z"/>
	</g>
</g>
<g>
</g>
<g>
</g>
<g>
</g>
<g>
</g>
<g>
</g>
<g>
</g>
<g>
</g>
<g>
</g>
<g>
</g>
<g>
</g>
<g>
</g>
<g>
</g>
<g>
</g>
<g>
</g>
<g>
</g>
</svg>
